<?xml version="1.0" encoding="utf-8"?>
<!-- Generator: Adobe Illustrator 25.0.1, SVG Export Plug-In . SVG Version: 6.00 Build 0)  -->
<svg version="1.1" xmlns="http://www.w3.org/2000/svg" xmlns:xlink="http://www.w3.org/1999/xlink" x="0px" y="0px" width="750px"
	 height="750px" viewBox="0 0 750 750" style="enable-background:new 0 0 750 750;" xml:space="preserve">
<style type="text/css">
	.st0{fill:#FFFFFF;}
	.st1{fill:#E74C3C;}
	.st2{fill:none;stroke:#E74C3C;stroke-width:2;stroke-linecap:round;stroke-linejoin:round;stroke-miterlimit:10;}
	.st3{opacity:0.98;}
	.st4{fill:none;stroke:#E74C3C;stroke-width:2;stroke-linecap:round;stroke-linejoin:round;}
	.st5{fill:none;stroke:#E74C3C;stroke-width:2;stroke-linecap:round;stroke-linejoin:round;stroke-dasharray:3.0968,5.1613;}
	.st6{fill:none;stroke:#E74C3C;stroke-width:2;stroke-linecap:round;stroke-linejoin:round;stroke-dasharray:3.0017,5.0029;}
	.st7{fill:none;stroke:#E74C3C;stroke-width:2;stroke-linecap:round;stroke-linejoin:round;stroke-dasharray:2.941,4.9017;}
	.st8{fill:none;stroke:#E74C3C;stroke-width:2;stroke-linecap:round;stroke-linejoin:round;stroke-dasharray:3.0996,5.1659;}
	
		.st9{fill:none;stroke:#E74C3C;stroke-width:2;stroke-linecap:round;stroke-linejoin:round;stroke-miterlimit:10;stroke-dasharray:3,5;}
	.st10{fill:none;stroke:#E74C3C;stroke-width:2;stroke-linecap:round;stroke-linejoin:round;stroke-dasharray:3.2351,5.3918;}
	.st11{fill:none;stroke:#E74C3C;stroke-width:2;stroke-linecap:round;stroke-linejoin:round;stroke-dasharray:2.9937,4.9895;}
	.st12{fill:none;stroke:#E74C3C;stroke-width:2;stroke-linecap:round;stroke-linejoin:round;stroke-dasharray:2.6627,4.4378;}
	.st13{fill:none;stroke:#E74C3C;stroke-width:2;stroke-linecap:round;stroke-linejoin:round;stroke-dasharray:2.8211,4.7019;}
	.st14{fill:none;stroke:#E74C3C;stroke-width:2;stroke-linecap:round;stroke-linejoin:round;stroke-dasharray:3.3501,5.5834;}
	.st15{fill:none;stroke:#E74C3C;stroke-width:2;stroke-linecap:round;stroke-linejoin:round;stroke-dasharray:2.5206,4.2011;}
	.st16{fill:none;stroke:#E74C3C;stroke-width:2.75;stroke-linecap:round;stroke-linejoin:round;}
	.st17{fill:none;stroke:#E74C3C;stroke-width:2.75;stroke-linecap:round;stroke-linejoin:round;stroke-dasharray:4.5221,6.3309;}
	.st18{fill:none;stroke:#E74C3C;stroke-width:2.75;stroke-linecap:round;stroke-linejoin:round;stroke-dasharray:4.9549,6.9369;}
	.st19{fill:none;stroke:#E74C3C;stroke-width:2.75;stroke-linecap:round;stroke-linejoin:round;stroke-dasharray:2.7472,3.8461;}
	.st20{fill:none;stroke:#E74C3C;stroke-width:2.75;stroke-linecap:round;stroke-linejoin:round;stroke-dasharray:5.0339,7.0475;}
	.st21{fill:none;stroke:#E74C3C;stroke-width:2.75;stroke-linecap:round;stroke-linejoin:round;stroke-dasharray:4.9767,6.9674;}
	.st22{fill:none;stroke:#E74C3C;stroke-width:2.75;stroke-linecap:round;stroke-linejoin:round;stroke-dasharray:4.9746,6.9644;}
	.st23{fill:none;stroke:#E74C3C;stroke-width:2.75;stroke-linecap:round;stroke-linejoin:round;stroke-dasharray:4.9909,6.9873;}
	.st24{fill:none;stroke:#E74C3C;stroke-width:2.75;stroke-linecap:round;stroke-linejoin:round;stroke-dasharray:3.6609,5.1253;}
	.st25{fill:none;stroke:#E74C3C;stroke-width:2.75;stroke-linecap:round;stroke-linejoin:round;stroke-dasharray:4.9942,6.9919;}
	.st26{fill:none;stroke:#E74C3C;stroke-width:2.75;stroke-linecap:round;stroke-linejoin:round;stroke-dasharray:5.0664,7.0929;}
	.st27{fill:none;stroke:#E74C3C;stroke-width:2.75;stroke-linecap:round;stroke-linejoin:round;stroke-dasharray:4.9963,6.9949;}
	.st28{fill:none;stroke:#E74C3C;stroke-width:2.75;stroke-linecap:round;stroke-linejoin:round;stroke-dasharray:5.7371,8.0319;}
	.st29{fill:none;stroke:#E74C3C;stroke-width:2.75;stroke-linecap:round;stroke-linejoin:round;stroke-dasharray:4.9279,6.899;}
	.st30{fill:none;stroke:#E74C3C;stroke-width:2.5;stroke-linecap:round;stroke-linejoin:round;}
	.st31{fill:none;stroke:#E74C3C;stroke-width:2.5;stroke-linecap:round;stroke-linejoin:round;stroke-dasharray:3.0001,5.0001;}
	.st32{fill:none;stroke:#E74C3C;stroke-width:2.5;stroke-linecap:round;stroke-linejoin:round;stroke-dasharray:3.0835,5.1392;}
	.st33{fill:none;stroke:#E74C3C;stroke-width:2.5;stroke-linecap:round;stroke-linejoin:round;stroke-dasharray:3.0113,5.0188;}
	.st34{fill:none;stroke:#E74C3C;stroke-width:2.5;stroke-linecap:round;stroke-linejoin:round;stroke-dasharray:2.9557,4.9262;}
	.st35{fill:none;stroke:#E74C3C;stroke-width:2.5;stroke-linecap:round;stroke-linejoin:round;stroke-dasharray:3.0818,5.1363;}
	.st36{fill:none;stroke:#E74C3C;stroke-width:2.5;stroke-linecap:round;stroke-linejoin:round;stroke-dasharray:2.9001,4.8335;}
	.st37{fill:none;stroke:#E74C3C;stroke-width:2.5;stroke-linecap:round;stroke-linejoin:round;stroke-dasharray:3.1854,5.3089;}
	.st38{fill:none;stroke:#E74C3C;stroke-width:2.5;stroke-linecap:round;stroke-linejoin:round;stroke-dasharray:3.018,5.03;}
	.st39{fill:none;stroke:#E74C3C;stroke-width:2.5;stroke-linecap:round;stroke-linejoin:round;stroke-dasharray:2.9776,4.9627;}
	.st40{fill:none;stroke:#E74C3C;stroke-width:2.5;stroke-linecap:round;stroke-linejoin:round;stroke-dasharray:3.0197,5.0329;}
	.st41{fill:none;stroke:#E74C3C;stroke-width:2.5;stroke-linecap:round;stroke-linejoin:round;stroke-dasharray:2.9936,4.9894;}
	.st42{fill:none;}
	.st43{fill:none;stroke:#E74C3C;stroke-width:2.5;stroke-linecap:round;stroke-linejoin:round;stroke-dasharray:2.9967,4.9944;}
	.st44{fill:none;stroke:#E74C3C;stroke-width:2.5;stroke-linecap:round;stroke-linejoin:round;stroke-dasharray:3.0498,5.0831;}
	.st45{fill:none;stroke:#E74C3C;stroke-width:2.5;stroke-linecap:round;stroke-linejoin:round;stroke-dasharray:3.0251,5.0419;}
	.st46{fill:none;stroke:#E74C3C;stroke-width:2.5;stroke-linecap:round;stroke-linejoin:round;stroke-dasharray:2.859,4.765;}
	.st47{fill:none;stroke:#E74C3C;stroke-width:2.5;stroke-linecap:round;stroke-linejoin:round;stroke-dasharray:2.9474,4.9123;}
	.st48{fill:none;stroke:#E74C3C;stroke-width:2.5;stroke-linecap:round;stroke-linejoin:round;stroke-dasharray:2.9572,4.9287;}
	.st49{fill:none;stroke:#E74C3C;stroke-width:2.5;stroke-linecap:round;stroke-linejoin:round;stroke-dasharray:3.0105,5.0174;}
	.st50{fill:none;stroke:#E74C3C;stroke-width:2.5;stroke-linecap:round;stroke-linejoin:round;stroke-dasharray:3.0206,5.0343;}
	.st51{fill:none;stroke:#E74C3C;stroke-width:2.5;stroke-linecap:round;stroke-linejoin:round;stroke-dasharray:3.0856,5.1427;}
	.st52{fill:none;stroke:#E74C3C;stroke-width:2.5;stroke-linecap:round;stroke-linejoin:round;stroke-dasharray:3.0724,5.1206;}
	.st53{fill:none;stroke:#E74C3C;stroke-width:2.5;stroke-linecap:round;stroke-linejoin:round;stroke-dasharray:2.9416,4.9027;}
	.st54{fill:none;stroke:#E74C3C;stroke-width:2.5;stroke-linecap:round;stroke-linejoin:round;stroke-dasharray:2.9041,4.8402;}
	.st55{fill:none;stroke:#E74C3C;stroke-width:2.5;stroke-linecap:round;stroke-linejoin:round;stroke-dasharray:2.9946,4.991;}
	.st56{fill:none;stroke:#E74C3C;stroke-width:2.5;stroke-linecap:round;stroke-linejoin:round;stroke-dasharray:2.9489,4.9149;}
	.st57{fill:none;stroke:#E74C3C;stroke-width:2.5;stroke-linecap:round;stroke-linejoin:round;stroke-dasharray:3.0518,5.0863;}
	.st58{fill:none;stroke:#E74C3C;stroke-width:2.5;stroke-linecap:round;stroke-linejoin:round;stroke-dasharray:3.0186,5.031;}
	.st59{fill:none;stroke:#E74C3C;stroke-width:2.5;stroke-linecap:round;stroke-linejoin:round;stroke-dasharray:2.9664,4.9441;}
	.st60{fill:none;stroke:#E74C3C;stroke-width:2.5;stroke-linecap:round;stroke-linejoin:round;stroke-dasharray:2.7631,4.6052;}
	.st61{fill:none;stroke:#E74C3C;stroke-width:2.5;stroke-linecap:round;stroke-linejoin:round;stroke-dasharray:3.0261,5.0436;}
	.st62{fill:none;stroke:#E74C3C;stroke-width:2.5;stroke-linecap:round;stroke-linejoin:round;stroke-dasharray:2.9845,4.9741;}
	.st63{fill:none;stroke:#E74C3C;stroke-width:2.5;stroke-linecap:round;stroke-linejoin:round;stroke-dasharray:2.9241,4.8735;}
	.st64{fill:none;stroke:#E74C3C;stroke-width:2.5;stroke-linecap:round;stroke-linejoin:round;stroke-dasharray:2.9347,4.8912;}
	.st65{fill:none;stroke:#E74C3C;stroke-width:2.5;stroke-linecap:round;stroke-linejoin:round;stroke-dasharray:2.9934,4.989;}
	.st66{fill:none;stroke:#E74C3C;stroke-width:2.5;stroke-linecap:round;stroke-linejoin:round;stroke-dasharray:2.9631,4.9385;}
	.st67{fill:none;stroke:#E74C3C;stroke-width:2.5;stroke-linecap:round;stroke-linejoin:round;stroke-dasharray:3.0359,5.0598;}
	.st68{fill:none;stroke:#E74C3C;stroke-width:2.5;stroke-linecap:round;stroke-linejoin:round;stroke-dasharray:2.9779,4.9632;}
	.st69{fill:none;stroke:#E74C3C;stroke-width:2.5;stroke-linecap:round;stroke-linejoin:round;stroke-dasharray:2.9726,4.9544;}
	.st70{fill:none;stroke:#E74C3C;stroke-width:2.5;stroke-linecap:round;stroke-linejoin:round;stroke-dasharray:2.9941,4.9902;}
	.st71{fill:none;stroke:#E74C3C;stroke-width:2.5;stroke-linecap:round;stroke-linejoin:round;stroke-dasharray:3.007,5.0116;}
	.st72{fill:none;stroke:#E74C3C;stroke-width:2.5;stroke-linecap:round;stroke-linejoin:round;stroke-dasharray:2.9749,4.9582;}
	.st73{fill:none;stroke:#E74C3C;stroke-width:2.5;stroke-linecap:round;stroke-linejoin:round;stroke-dasharray:2.8257,4.7095;}
	.st74{fill:none;stroke:#E74C3C;stroke-width:2.5;stroke-linecap:round;stroke-linejoin:round;stroke-dasharray:2.8363,4.7272;}
	.st75{fill:none;stroke:#E74C3C;stroke-width:2.75;stroke-linecap:round;stroke-linejoin:round;stroke-miterlimit:10;}
	.st76{fill:none;stroke:#E74C3C;stroke-width:3.5;stroke-linecap:round;stroke-linejoin:round;stroke-miterlimit:10;}
</style>
<g id="FILL-BACKGROUND">
	<rect class="st0" width="750" height="750"/>
</g>
<g id="N-TEXT">
</g>
<g id="N-DIMENSIONS">
</g>
<g id="_x32_D_x24_AG-DIAGRAM">
</g>
<g id="_x32_D_x24_AG-DETAILS-DIAGRAM">
</g>
<g id="_x32_D_x24_AG-SPORTS">
	<g id="POLYLINE_490_">
		<line class="st75" x1="217.75" y1="375.89" x2="217.75" y2="374.11"/>
	</g>
	<g id="POLYLINE_479_">
		<line class="st75" x1="217.42" y1="394.56" x2="217.54" y2="392.79"/>
	</g>
	<g id="POLYLINE_449_">
		<line class="st75" x1="214.48" y1="412.99" x2="214.87" y2="411.25"/>
	</g>
	<g id="POLYLINE_448_">
		<line class="st75" x1="208.56" y1="430.69" x2="209.23" y2="429.04"/>
	</g>
	<g id="POLYLINE_447_">
		<line class="st75" x1="103.88" y1="499.77" x2="107.68" y2="499.77"/>
	</g>
	<g id="POLYLINE_446_">
		<line class="st75" x1="124.47" y1="497.85" x2="126.22" y2="497.5"/>
	</g>
	<g id="POLYLINE_445_">
		<line class="st75" x1="142.49" y1="492.98" x2="144.15" y2="492.36"/>
	</g>
	<g id="POLYLINE_444_">
		<line class="st75" x1="159.46" y1="485.24" x2="161" y2="484.35"/>
	</g>
	<g id="POLYLINE_443_">
		<line class="st75" x1="174.95" y1="474.82" x2="176.32" y2="473.7"/>
	</g>
	<g id="POLYLINE_442_">
		<line class="st75" x1="188.53" y1="462.03" x2="189.7" y2="460.68"/>
	</g>
	<g id="POLYLINE_441_">
		<line class="st75" x1="199.83" y1="447.18" x2="200.77" y2="445.67"/>
	</g>
	<g id="POLYLINE_440_">
		<line class="st75" x1="217.42" y1="355.44" x2="217.54" y2="357.21"/>
	</g>
	<g id="POLYLINE_439_">
		<line class="st75" x1="214.48" y1="337.01" x2="214.87" y2="338.75"/>
	</g>
	<g id="POLYLINE_438_">
		<line class="st75" x1="208.56" y1="319.31" x2="209.23" y2="320.96"/>
	</g>
	<g id="POLYLINE_437_">
		<line class="st75" x1="103.88" y1="250.23" x2="107.68" y2="250.23"/>
	</g>
	<g id="POLYLINE_436_">
		<line class="st75" x1="124.47" y1="252.15" x2="126.22" y2="252.5"/>
	</g>
	<g id="POLYLINE_435_">
		<line class="st75" x1="142.49" y1="257.02" x2="144.15" y2="257.64"/>
	</g>
	<g id="POLYLINE_434_">
		<line class="st75" x1="159.46" y1="264.76" x2="161" y2="265.65"/>
	</g>
	<g id="POLYLINE_433_">
		<line class="st75" x1="174.95" y1="275.18" x2="176.32" y2="276.3"/>
	</g>
	<g id="POLYLINE_432_">
		<line class="st75" x1="188.53" y1="287.97" x2="189.7" y2="289.32"/>
	</g>
	<g id="POLYLINE_431_">
		<line class="st75" x1="199.83" y1="302.82" x2="200.77" y2="304.33"/>
	</g>
	<g id="POLYLINE_430_">
		<path class="st75" d="M103.88,277.4c37.06-0.03,70.23,23.72,82.14,58.81c2.08,6.11,3.49,12.56,4.16,18.98
			c0.79,6.1,0.37,24.26,0.46,30.66c0,9.46-1.57,18.99-4.62,27.95c-11.91,35.1-45.07,58.85-82.14,58.81"/>
	</g>
	<g id="POLYLINE_429_">
		<line class="st75" x1="239.68" y1="212.33" x2="239.68" y2="537.67"/>
	</g>
	<g id="POLYLINE_428_">
		<path class="st75" d="M142.28,375c0,0.02,0,0.03,0,0.03c0,0.03,0,0.04,0,0.04c-0.01,0.03-0.01,0.04-0.01,0.04
			c-0.01,0.03-0.01,0.04-0.01,0.04c-0.01,0.03-0.01,0.04-0.01,0.04c-0.01,0.03-0.02,0.03-0.02,0.03c-0.02,0.03-0.02,0.03-0.02,0.03
			c-0.02,0.03-0.02,0.03-0.02,0.03c-0.03,0.03-0.03,0.03-0.03,0.03c-0.03,0.03-0.03,0.03-0.03,0.03c-0.02,0.02-0.03,0.02-0.03,0.02
			c-0.03,0.02-0.03,0.02-0.03,0.02c-0.03,0.01-0.03,0.02-0.03,0.02c-0.03,0.01-0.04,0.01-0.04,0.01c-0.03,0.01-0.04,0.01-0.04,0.01
			c-0.03,0.01-0.04,0.01-0.04,0.01c-0.03,0-0.04,0-0.04,0c-0.02,0-0.03,0-0.03,0c-0.02,0-0.03,0-0.03,0c-0.03,0-0.04,0-0.04,0
			c-0.03-0.01-0.04-0.01-0.04-0.01c-0.03-0.01-0.04-0.01-0.04-0.01c-0.03-0.01-0.04-0.01-0.04-0.01c-0.03-0.01-0.03-0.02-0.03-0.02
			c-0.03-0.02-0.03-0.02-0.03-0.02c-0.03-0.02-0.03-0.02-0.03-0.02c-0.03-0.03-0.03-0.03-0.03-0.03c-0.03-0.03-0.03-0.03-0.03-0.03
			c-0.02-0.02-0.02-0.03-0.02-0.03c-0.02-0.03-0.02-0.03-0.02-0.03c-0.01-0.03-0.02-0.03-0.02-0.03c-0.01-0.03-0.01-0.04-0.01-0.04
			c-0.01-0.03-0.01-0.04-0.01-0.04c-0.01-0.03-0.01-0.04-0.01-0.04c0-0.03,0-0.04,0-0.04c0-0.02,0-0.03,0-0.03c0-0.02,0-0.03,0-0.03
			c0-0.03,0-0.04,0-0.04c0.01-0.03,0.01-0.04,0.01-0.04c0.01-0.03,0.01-0.04,0.01-0.04c0.01-0.03,0.01-0.04,0.01-0.04
			c0.01-0.03,0.02-0.03,0.02-0.03c0.02-0.03,0.02-0.03,0.02-0.03c0.02-0.03,0.02-0.03,0.02-0.03c0.03-0.03,0.03-0.03,0.03-0.03
			c0.03-0.03,0.03-0.03,0.03-0.03c0.02-0.02,0.03-0.02,0.03-0.02c0.03-0.02,0.03-0.02,0.03-0.02c0.03-0.01,0.03-0.02,0.03-0.02
			c0.03-0.01,0.04-0.01,0.04-0.01c0.03-0.01,0.04-0.01,0.04-0.01c0.03-0.01,0.04-0.01,0.04-0.01c0.03,0,0.04,0,0.04,0
			c0.02,0,0.03,0,0.03,0c0.02,0,0.03,0,0.03,0c0.03,0,0.04,0,0.04,0c0.03,0.01,0.04,0.01,0.04,0.01c0.03,0.01,0.04,0.01,0.04,0.01
			c0.03,0.01,0.04,0.01,0.04,0.01c0.03,0.01,0.03,0.02,0.03,0.02c0.03,0.02,0.03,0.02,0.03,0.02c0.03,0.02,0.03,0.02,0.03,0.02
			c0.03,0.03,0.03,0.03,0.03,0.03c0.03,0.03,0.03,0.03,0.03,0.03c0.02,0.03,0.03,0.04,0.03,0.04c0.02,0.03,0.02,0.03,0.02,0.03
			c0.01,0.03,0.02,0.03,0.02,0.03c0.01,0.03,0.01,0.04,0.01,0.04c0.01,0.03,0.01,0.04,0.01,0.04c0.01,0.03,0.01,0.04,0.01,0.04
			c0,0.03,0,0.04,0,0.04C142.28,374.99,142.28,375,142.28,375z"/>
	</g>
	<g id="POLYLINE_427_">
		<rect x="96.76" y="364.16" class="st75" width="7.12" height="21.69"/>
	</g>
	<g id="POLYLINE_426_">
		<rect x="103.88" y="212.33" class="st75" width="542.25" height="325.35"/>
	</g>
	<g id="POLYLINE_408_">
		<line class="st75" x1="532.25" y1="375.89" x2="532.25" y2="374.11"/>
	</g>
	<g id="POLYLINE_407_">
		<line class="st75" x1="532.58" y1="394.56" x2="532.46" y2="392.79"/>
	</g>
	<g id="POLYLINE_394_">
		<line class="st75" x1="535.52" y1="412.99" x2="535.13" y2="411.25"/>
	</g>
	<g id="POLYLINE_393_">
		<line class="st75" x1="541.44" y1="430.69" x2="540.77" y2="429.04"/>
	</g>
	<g id="POLYLINE_392_">
		<line class="st75" x1="646.12" y1="499.77" x2="642.32" y2="499.77"/>
	</g>
	<g id="POLYLINE_391_">
		<line class="st75" x1="625.53" y1="497.85" x2="623.78" y2="497.5"/>
	</g>
	<g id="POLYLINE_390_">
		<line class="st75" x1="607.51" y1="492.98" x2="605.85" y2="492.36"/>
	</g>
	<g id="POLYLINE_389_">
		<line class="st75" x1="590.54" y1="485.24" x2="589" y2="484.35"/>
	</g>
	<g id="POLYLINE_388_">
		<line class="st75" x1="575.05" y1="474.82" x2="573.68" y2="473.7"/>
	</g>
	<g id="POLYLINE_387_">
		<line class="st75" x1="561.47" y1="462.03" x2="560.3" y2="460.68"/>
	</g>
	<g id="POLYLINE_386_">
		<line class="st75" x1="550.17" y1="447.18" x2="549.23" y2="445.67"/>
	</g>
	<g id="POLYLINE_385_">
		<line class="st75" x1="532.58" y1="355.44" x2="532.46" y2="357.21"/>
	</g>
	<g id="POLYLINE_372_">
		<line class="st75" x1="535.52" y1="337.01" x2="535.13" y2="338.75"/>
	</g>
	<g id="POLYLINE_343_">
		<line class="st75" x1="541.44" y1="319.31" x2="540.77" y2="320.96"/>
	</g>
	<g id="POLYLINE_296_">
		<line class="st75" x1="646.12" y1="250.23" x2="642.32" y2="250.23"/>
	</g>
	<g id="POLYLINE_231_">
		<line class="st75" x1="625.53" y1="252.15" x2="623.78" y2="252.5"/>
	</g>
	<g id="POLYLINE_204_">
		<line class="st75" x1="607.51" y1="257.02" x2="605.85" y2="257.64"/>
	</g>
	<g id="POLYLINE_200_">
		<line class="st75" x1="590.54" y1="264.76" x2="589" y2="265.65"/>
	</g>
	<g id="POLYLINE_149_">
		<line class="st75" x1="575.05" y1="275.18" x2="573.68" y2="276.3"/>
	</g>
	<g id="POLYLINE_131_">
		<line class="st75" x1="561.47" y1="287.97" x2="560.3" y2="289.32"/>
	</g>
	<g id="POLYLINE_130_">
		<line class="st75" x1="550.17" y1="302.82" x2="549.23" y2="304.33"/>
	</g>
	<g id="POLYLINE_120_">
		<path class="st75" d="M646.12,277.4c-37.06-0.03-70.23,23.72-82.14,58.81c-2.08,6.11-3.49,12.56-4.16,18.98
			c-0.79,6.1-0.37,24.26-0.46,30.66c0,9.46,1.57,18.99,4.62,27.95c11.91,35.1,45.07,58.85,82.14,58.81"/>
	</g>
	<g id="POLYLINE_109_">
		<line class="st75" x1="510.32" y1="212.33" x2="510.32" y2="537.67"/>
	</g>
	<g id="POLYLINE_71_">
		<path class="st75" d="M607.72,375c0,0.02,0,0.03,0,0.03c0,0.03,0,0.04,0,0.04c0.01,0.03,0.01,0.04,0.01,0.04
			c0.01,0.03,0.01,0.04,0.01,0.04c0.01,0.03,0.01,0.04,0.01,0.04c0.01,0.03,0.02,0.03,0.02,0.03c0.02,0.03,0.02,0.03,0.02,0.03
			c0.02,0.03,0.02,0.03,0.02,0.03c0.03,0.03,0.03,0.03,0.03,0.03c0.03,0.03,0.03,0.03,0.03,0.03c0.02,0.02,0.03,0.02,0.03,0.02
			c0.03,0.02,0.03,0.02,0.03,0.02c0.03,0.01,0.03,0.02,0.03,0.02c0.03,0.01,0.04,0.01,0.04,0.01c0.03,0.01,0.04,0.01,0.04,0.01
			c0.03,0.01,0.04,0.01,0.04,0.01c0.03,0,0.04,0,0.04,0c0.02,0,0.03,0,0.03,0c0.02,0,0.03,0,0.03,0c0.03,0,0.04,0,0.04,0
			c0.03-0.01,0.04-0.01,0.04-0.01c0.03-0.01,0.04-0.01,0.04-0.01c0.03-0.01,0.04-0.01,0.04-0.01c0.03-0.01,0.03-0.02,0.03-0.02
			c0.03-0.02,0.03-0.02,0.03-0.02c0.03-0.02,0.03-0.02,0.03-0.02c0.03-0.03,0.03-0.03,0.03-0.03c0.03-0.03,0.03-0.03,0.03-0.03
			c0.02-0.02,0.02-0.03,0.02-0.03c0.02-0.03,0.02-0.03,0.02-0.03c0.01-0.03,0.02-0.03,0.02-0.03c0.01-0.03,0.01-0.04,0.01-0.04
			c0.01-0.03,0.01-0.04,0.01-0.04c0.01-0.03,0.01-0.04,0.01-0.04c0-0.03,0-0.04,0-0.04c0-0.02,0-0.03,0-0.03c0-0.02,0-0.03,0-0.03
			c0-0.03,0-0.04,0-0.04c-0.01-0.03-0.01-0.04-0.01-0.04c-0.01-0.03-0.01-0.04-0.01-0.04c-0.01-0.03-0.01-0.04-0.01-0.04
			c-0.01-0.03-0.02-0.03-0.02-0.03c-0.02-0.03-0.02-0.03-0.02-0.03c-0.02-0.03-0.02-0.03-0.02-0.03c-0.03-0.03-0.03-0.03-0.03-0.03
			c-0.03-0.03-0.03-0.03-0.03-0.03c-0.02-0.02-0.03-0.02-0.03-0.02c-0.03-0.02-0.03-0.02-0.03-0.02c-0.03-0.01-0.03-0.02-0.03-0.02
			c-0.03-0.01-0.04-0.01-0.04-0.01c-0.03-0.01-0.04-0.01-0.04-0.01c-0.03-0.01-0.04-0.01-0.04-0.01c-0.03,0-0.04,0-0.04,0
			c-0.02,0-0.03,0-0.03,0c-0.02,0-0.03,0-0.03,0c-0.03,0-0.04,0-0.04,0c-0.03,0.01-0.04,0.01-0.04,0.01
			c-0.03,0.01-0.04,0.01-0.04,0.01c-0.03,0.01-0.04,0.01-0.04,0.01c-0.03,0.01-0.03,0.02-0.03,0.02c-0.03,0.02-0.03,0.02-0.03,0.02
			c-0.03,0.02-0.03,0.02-0.03,0.02c-0.03,0.03-0.03,0.03-0.03,0.03c-0.03,0.03-0.03,0.03-0.03,0.03c-0.02,0.03-0.03,0.04-0.03,0.04
			c-0.02,0.03-0.02,0.03-0.02,0.03c-0.01,0.03-0.02,0.03-0.02,0.03c-0.01,0.03-0.01,0.04-0.01,0.04c-0.01,0.03-0.01,0.04-0.01,0.04
			c-0.01,0.03-0.01,0.04-0.01,0.04c0,0.03,0,0.04,0,0.04C607.72,374.99,607.72,375,607.72,375z"/>
	</g>
	<g id="POLYLINE_70_">
		<rect x="646.12" y="364.16" class="st75" width="7.12" height="21.69"/>
	</g>
	<g id="POLYLINE_69_">
		<line class="st75" x1="375" y1="212.33" x2="375" y2="537.67"/>
	</g>
</g>
<g id="_x32_D_x24_AG-OUTLINE">
	<g id="POLYLINE_14_">
		<polygon class="st76" points="646.12,537.67 103.88,537.67 103.88,385.84 96.76,385.84 96.76,364.16 103.88,364.16 103.88,212.33 
			646.12,212.33 646.12,364.16 653.24,364.16 653.24,385.84 646.12,385.84 		"/>
	</g>
</g>
</svg>
